PathFileType	4	(X/Y/Z)	C:\Users\Basilio\Documents\Thesis Gigler\squatting_fais\c3dfiles\077\SJ_pre1\markers_experimental.trc
DataRate	CameraRate	NumFrames	NumMarkers	Units	OrigDataRate	OrigDataStartFrame	OrigNumFrames
200.000000	200.000000	4	60	mm	200.000000	1365	1561
Frame#	Time	FHD			LBHD			RBHD			C7			T10			CLAV			LSHO			LUUPA			LMUPA			LDUPA			LLEP			LMEP			LRAD			LUL			LRFIN			RSHO			RUPA1			RMUPA			RDUPA			RLEP			RMEP			RRAD			RUL			RUFIN			LASI			RASI			USACR			LSACR			RSACR			LTHI1			LTHI2			LTHI3			LTHI4			LLFC			LMFC			LTIB1			LTIB2			LTIB3			LTIB4			LLMAL			LHEE			LMT1			LMT2			LMT5			RTHI			RTHI2			RTHI3			RTHI4			RLFC			RMFC			RTIB1			RTIB2			RTIB3			RTIB4			RLMAL			RMMAL			RHEE			RMT1			RMT2			RMT5			
		X1	Y1	Z1	X2	Y2	Z2	X3	Y3	Z3	X4	Y4	Z4	X5	Y5	Z5	X6	Y6	Z6	X7	Y7	Z7	X8	Y8	Z8	X9	Y9	Z9	X10	Y10	Z10	X11	Y11	Z11	X12	Y12	Z12	X13	Y13	Z13	X14	Y14	Z14	X15	Y15	Z15	X16	Y16	Z16	X17	Y17	Z17	X18	Y18	Z18	X19	Y19	Z19	X20	Y20	Z20	X21	Y21	Z21	X22	Y22	Z22	X23	Y23	Z23	X24	Y24	Z24	X25	Y25	Z25	X26	Y26	Z26	X27	Y27	Z27	X28	Y28	Z28	X29	Y29	Z29	X30	Y30	Z30	X31	Y31	Z31	X32	Y32	Z32	X33	Y33	Z33	X34	Y34	Z34	X35	Y35	Z35	X36	Y36	Z36	X37	Y37	Z37	X38	Y38	Z38	X39	Y39	Z39	X40	Y40	Z40	X41	Y41	Z41	X42	Y42	Z42	X43	Y43	Z43	X44	Y44	Z44	X45	Y45	Z45	X46	Y46	Z46	X47	Y47	Z47	X48	Y48	Z48	X49	Y49	Z49	X50	Y50	Z50	X51	Y51	Z51	X52	Y52	Z52	X53	Y53	Z53	X54	Y54	Z54	X55	Y55	Z55	X56	Y56	Z56	X57	Y57	Z57	X58	Y58	Z58	X59	Y59	Z59	X60	Y60	Z60	

1366	6.825	-94.32340240478517	1805.49267578125	-911.5498657226565	-232.868881225586	1695.935791015625	-982.9819946289065	-242.1982727050782	1692.522094726563	-837.6858520507815	-304.3670654296876	1584.084106445313	-911.9760742187502	-396.123016357422	1263.162963867188	-915.3695068359377	-146.1806793212891	1496.408203125	-910.5926513671877	-193.9380340576172	1540.469360351563	-1099.89013671875	-252.2866363525391	1416.921142578125	-1273.282592773438	-229.7539062500001	1371.477661132813	-1272.424072265625	-268.2345275878907	1368.53759765625	-1319.317138671875	-278.2247619628907	1307.82373046875	-1353.08544921875	-361.9116210937501	1307.17724609375	-1327.97314453125	-327.2786560058594	1086.134155273438	-1146.6376953125	-295.6562500000001	1031.326904296875	-1198.658935546875	-285.2338562011719	1059.8154296875	-1091.095458984375	-164.8829498291016	1532.796142578125	-721.9021606445314	-249.5857696533204	1412.565063476563	-544.1201171875001	-234.6305389404297	1364.530029296875	-546.8831176757814	-274.9570617675782	1360.452514648438	-503.1580810546876	-292.8720703125001	1297.21435546875	-476.7928161621095	-377.7362976074219	1304.314086914063	-502.275848388672	-352.1752624511719	1080.107666015625	-670.4083251953126	-297.9957580566407	1036.214111328125	-631.0903320312501	-298.6304931640626	1074.173706054688	-723.7361450195314	-254.7750549316407	1032.003295898438	-1046.87353515625	-262.0356750488282	1044.71240234375	-777.2929687500002	-435.4275512695314	1164.356689453125	-915.6206054687502	-448.0913085937501	1137.9228515625	-944.7901611328127	-453.2328491210939	1136.445678710938	-889.3162841796877	-353.2525329589844	843.8754882812502	-1139.316040039063	-323.6480712890626	765.8417968750001	-1153.44970703125	-275.3911743164063	767.0194702148439	-1148.187622070313	-351.8518371582032	711.7439575195314	-1144.27734375	-317.8878784179688	565.8957519531251	-1145.288940429688	-300.9738769531251	520.3188476562501	-1021.021911621094	-281.9968872070313	336.1774597167969	-1127.233642578125	-318.3169555664063	306.0028686523438	-1204.043212890625	-285.0330810546876	297.1484375000001	-1172.762939453125	-287.5052490234376	212.8786315917969	-1158.597045898438	-350.6662292480469	102.4930114746094	-1219.67431640625	-397.2760314941407	45.59409332275391	-1172.021362304688	-179.4778442382813	58.69054031372072	-1179.68115234375	-183.556884765625	60.27827072143556	-1222.650024414063	-312.8540344238282	101.3184890747071	-1137.375122070313	-376.2507934570313	736.3090209960939	-681.8668212890626	-336.8985595703126	682.5396118164064	-665.4927368164064	-302.8537902832032	684.1063842773439	-667.8092041015626	-359.5517883300782	604.8711547851564	-677.2005004882814	-350.9863586425782	537.5684204101564	-668.4149169921876	-298.0664978027344	507.5151672363282	-783.9404907226565	-294.6235046386719	404.2712402343751	-655.8604736328126	-360.4565734863282	328.1951293945313	-622.3808593750001	-314.6264953613282	322.6021118164063	-633.3451538085939	-301.8054504394532	273.6396484375001	-664.8234863281251	-370.0940551757813	97.65102386474612	-610.7330322265626	-324.2854003906251	94.83240509033205	-692.7269897460939	-414.9748535156251	44.60026550292969	-673.8623046875001	-198.7182312011719	60.61872863769533	-605.6300048828126	-212.5334625244141	61.77803802490236	-570.4493408203126	-239.2583618164063	42.02575302124024	-526.3783569335939	
1367	6.83	-93.48397827148439	1804.864013671875	-911.6187133789065	-232.0100402832032	1695.507690429688	-983.0444946289065	-241.626449584961	1691.555908203125	-837.637634277344	-303.8189086914063	1583.7236328125	-912.0469360351565	-396.1675720214845	1263.128051757813	-915.4345703125002	-145.6788482666016	1495.867797851563	-910.5659790039065	-192.9955596923829	1539.92724609375	-1099.84619140625	-251.5023803710938	1416.342529296875	-1273.303466796875	-229.0357818603516	1370.909790039063	-1272.601684570313	-267.8068237304688	1368.168823242188	-1319.328247070313	-278.3564758300782	1307.653930664063	-1353.339721679688	-361.5562133789063	1306.9892578125	-1328.171875	-327.9631652832032	1085.754028320313	-1146.6943359375	-296.2135009765626	1031.232055664063	-1198.740600585938	-285.4774475097657	1059.509643554688	-1091.220458984375	-164.0993804931641	1531.95166015625	-722.0923461914064	-248.6807403564454	1411.920166015625	-544.2426757812501	-234.6303253173829	1362.715209960938	-547.7377929687501	-274.2518615722657	1359.7978515625	-503.3437500000001	-292.2909851074219	1296.758056640625	-476.9524841308595	-377.1726989746094	1304.065307617188	-502.1459350585939	-352.4820861816407	1079.884887695313	-670.5307617187501	-298.3919677734376	1035.815307617188	-631.3457641601564	-299.0386047363282	1073.86767578125	-723.9086303710939	-255.2620697021485	1031.783203125	-1046.961669921875	-262.6060180664063	1044.478271484375	-777.490173339844	-435.684295654297	1164.583740234375	-915.7234497070315	-448.4022521972657	1138.093017578125	-944.9167480468752	-453.6116333007814	1136.520874023438	-889.4027099609377	-353.7275390625001	843.954284667969	-1139.533203125	-323.8783569335938	765.8626708984376	-1153.671508789063	-275.5696716308594	767.1337280273439	-1148.295166015625	-352.0920410156251	711.7752685546876	-1144.41015625	-317.8975524902344	565.8709716796876	-1145.450439453125	-301.2312316894532	520.3060302734376	-1021.063720703125	-282.0211486816407	336.1533508300782	-1127.293212890625	-318.3457031250001	305.9924926757813	-1204.1513671875	-285.0993652343751	297.1553955078126	-1172.962036132813	-287.4525146484376	212.7886962890626	-1158.636596679688	-350.7953186035157	102.4959869384766	-1219.661865234375	-397.2793273925782	45.60748672485352	-1172.041748046875	-179.4384460449219	58.71783447265626	-1179.737060546875	-183.3625793457032	60.17931365966798	-1222.57421875	-312.8406677246094	101.3360748291016	-1137.46533203125	-376.3492126464844	736.2211914062501	-681.7592163085939	-336.8774719238282	682.4324951171876	-665.4697875976564	-302.8409423828126	684.0916748046876	-667.8225097656251	-359.2726135253907	604.7985839843751	-677.1205444335939	-350.6058654785157	537.6071166992189	-668.2440795898439	-298.6705932617188	507.6304016113282	-784.1880493164065	-294.2816467285157	404.2563781738282	-655.7398681640626	-360.2210998535157	328.1965942382813	-622.2615356445314	-314.2734680175782	322.7287292480469	-633.3640136718751	-301.5969238281251	273.6161804199219	-664.7224121093751	-370.1390991210938	97.53369140625003	-610.7233276367189	-324.1817321777344	94.79946899414064	-692.6994018554689	-415.8230285644532	44.79478454589844	-673.4762573242189	-198.7112731933594	60.6196975708008	-605.6544189453126	-212.5173034667969	61.73986816406251	-570.4295654296876	-239.2509002685547	42.05706024169923	-526.3806762695314	
1368	6.835	-92.85839080810548	1804.536376953125	-911.660095214844	-231.3330993652344	1695.055053710938	-983.0357055664065	-240.9450683593751	1691.252807617188	-837.6448974609377	-303.2818908691407	1583.646362304688	-912.0573730468752	-396.135223388672	1263.225830078125	-915.5537719726565	-145.4454193115235	1495.321533203125	-910.7945556640627	-192.207260131836	1539.306396484375	-1099.73876953125	-250.989242553711	1415.914306640625	-1273.354248046875	-228.6919097900391	1370.513549804688	-1272.728759765625	-267.0974426269532	1367.749267578125	-1319.272216796875	-277.9259643554688	1307.339721679688	-1353.466430664063	-361.2483520507813	1306.82080078125	-1328.426391601563	-328.0621032714844	1085.635131835938	-1146.897338867188	-296.4063415527344	1031.006469726563	-1198.703369140625	-285.8175354003907	1059.146362304688	-1091.295654296875	-163.3251037597657	1531.3447265625	-722.2435302734376	-247.7547760009766	1411.326538085938	-544.3660888671876	-233.6042480468751	1362.755126953125	-547.5031127929689	-273.4371948242188	1359.281616210938	-503.4326171875001	-291.7384033203126	1296.256713867188	-477.0036621093751	-376.6203918457032	1303.787963867188	-502.1719055175782	-352.7866821289063	1079.572265625	-670.6774902343751	-298.8032836914063	1035.3232421875	-631.5875244140626	-299.3624572753907	1073.574340820313	-724.0276489257814	-255.7471008300782	1031.62451171875	-1046.928588867188	-264.5086669921876	1044.248413085938	-779.9087524414065	-435.8579101562501	1164.735961914063	-915.8613891601565	-448.6127014160157	1138.224365234375	-945.0245361328127	-453.925506591797	1136.4296875	-889.476501464844	-354.2065124511719	844.0275878906252	-1139.715698242188	-324.1145629882813	765.7330932617189	-1153.815307617188	-275.1775207519532	766.9501342773439	-1148.120361328125	-352.4470214843751	711.8334960937501	-1144.607421875	-318.0419311523438	565.8392944335939	-1145.632934570313	-301.5136108398438	520.3086547851564	-1021.049987792969	-282.1165771484376	336.1802368164063	-1127.423461914063	-318.4438476562501	305.9155273437501	-1204.1787109375	-285.1199645996094	297.2274169921876	-1173.05615234375	-287.6088867187501	212.9597930908204	-1158.807373046875	-350.8851318359376	102.4997177124024	-1219.710083007813	-397.2626953125001	45.58966064453126	-1172.072509765625	-179.4088897705078	58.74307250976564	-1179.717529296875	-183.591293334961	60.21955490112306	-1222.702392578125	-312.9043273925782	101.3091583251953	-1137.47412109375	-376.4765625000001	736.1030273437501	-681.7081298828126	-336.8107910156251	682.4060668945314	-665.4714965820314	-302.8197631835938	684.0651245117189	-667.8833007812501	-359.0474548339844	604.7302246093751	-677.0557250976564	-350.2871093750001	537.5579223632814	-668.1528320312501	-297.3193969726563	507.4809570312501	-783.7786865234377	-293.9461975097657	404.3220214843751	-655.5903320312501	-360.0597839355469	328.0855102539063	-622.2171020507814	-314.1578063964844	322.5331420898438	-633.2379150390626	-301.3623962402344	273.4171142578126	-664.6493530273439	-369.9978332519532	97.62094879150393	-610.7453613281251	-324.2395935058594	94.77210998535158	-692.7182617187501	-415.756317138672	44.8161964416504	-673.4970092773439	-198.6725006103516	60.53846740722658	-605.6544189453126	-212.5083007812501	61.74646377563478	-570.4219970703126	-239.2296905517579	42.06969070434571	-526.3787231445314	
1369	6.84	-91.9530487060547	1803.734008789063	-911.5220947265627	-230.8572387695313	1694.65576171875	-983.0996093750002	-240.349349975586	1690.96435546875	-837.7268676757815	-302.7762145996094	1583.428955078125	-912.1172485351565	-396.1695556640626	1263.263549804688	-915.6030883789065	-145.221908569336	1494.827880859375	-910.979187011719	-191.6081695556641	1538.894287109375	-1099.903564453125	-250.1537017822266	1415.485961914063	-1273.408325195313	-228.7406616210938	1370.120971679688	-1272.5908203125	-266.4896850585938	1367.337036132813	-1319.34228515625	-277.5429992675782	1306.982177734375	-1353.481201171875	-360.9555969238282	1306.586669921875	-1328.625244140625	-328.0953063964844	1085.427856445313	-1147.064086914063	-296.5917053222657	1030.664672851563	-1198.741821289063	-286.1924438476563	1058.776123046875	-1091.2744140625	-162.5563354492188	1530.65380859375	-722.3294067382814	-247.0754394531251	1410.502075195313	-544.4950561523439	-233.1341552734376	1361.892211914063	-547.7352905273439	-272.7770080566407	1358.745483398438	-503.5244445800782	-291.1958312988282	1295.600830078125	-477.171356201172	-376.1261291503907	1303.482299804688	-502.1544494628907	-353.0144958496094	1079.343994140625	-670.8098754882814	-299.1301269531251	1034.859619140625	-631.8335571289064	-299.7233276367188	1073.181884765625	-724.1119995117189	-256.2321777343751	1031.380004882813	-1046.983276367188	-264.8593750000001	1043.93896484375	-780.0167236328127	-436.0616149902345	1164.86328125	-915.8894653320315	-449.0003356933595	1138.30615234375	-945.0784912109377	-454.1912231445314	1136.803955078125	-889.5906982421877	-354.2640991210938	843.9295654296877	-1139.814086914063	-324.4118041992188	765.7832641601564	-1153.933227539063	-275.5428161621094	766.9014282226564	-1148.198364257813	-352.5951232910157	711.6661376953126	-1144.67919921875	-318.1945800781251	565.9024047851564	-1145.760986328125	-301.8773803710938	520.2211303710939	-1021.122253417969	-282.2479248046876	336.1323242187501	-1127.468505859375	-318.5150146484376	305.9993896484376	-1204.236450195313	-285.3379516601563	297.1958618164063	-1173.12841796875	-287.6485900878907	212.9309997558594	-1158.769653320313	-350.6224670410157	102.3598327636719	-1219.765502929688	-397.2759094238282	45.58549880981446	-1172.111083984375	-179.415283203125	58.74032974243165	-1179.727416992188	-183.6110992431641	60.21109771728517	-1222.695678710938	-312.8837585449219	101.302963256836	-1137.544311523438	-376.5022583007813	736.0051269531251	-681.7895507812501	-336.7022399902344	682.4507446289064	-665.4880371093751	-302.7743530273438	684.0894165039064	-667.9861450195314	-358.9041137695313	604.6192626953126	-677.0650634765626	-350.0187377929688	537.4630737304689	-668.1057739257814	-297.7985534667969	507.7115478515626	-784.0999145507815	-293.6965637207032	404.4042968750001	-655.5124511718751	-359.8876342773438	328.1338195800782	-622.1939697265626	-314.0857543945313	322.3931579589844	-633.1439208984376	-301.0665283203126	273.3798522949219	-664.4904785156251	-370.0170898437501	97.60371398925784	-610.7628173828126	-324.2310180664063	94.74630737304689	-692.7709350585939	-414.9674682617189	44.60121536254884	-673.8867187500001	-198.6361389160157	60.61155700683595	-605.6543579101564	-212.5040740966797	61.74953842163087	-570.4425659179689	-239.2398376464844	42.11095428466798	-526.4026489257814	
